<?xml version="1.0" encoding="UTF-8" standalone="no"?>
<!-- Created with Inkscape (http://www.inkscape.org/) -->

<svg
   xmlns:dc="http://purl.org/dc/elements/1.1/"
   xmlns:cc="http://creativecommons.org/ns#"
   xmlns:rdf="http://www.w3.org/1999/02/22-rdf-syntax-ns#"
   xmlns:svg="http://www.w3.org/2000/svg"
   xmlns="http://www.w3.org/2000/svg"
   xmlns:sodipodi="http://sodipodi.sourceforge.net/DTD/sodipodi-0.dtd"
   xmlns:inkscape="http://www.inkscape.org/namespaces/inkscape"
   width="32"
   height="32"
   id="svg4747"
   version="1.1"
   inkscape:version="0.91 r13725"
   viewBox="0 0 32 32"
   sodipodi:docname="birthday.svg">
  <defs
     id="defs4749" />
  <sodipodi:namedview
     id="base"
     pagecolor="#ffffff"
     bordercolor="#666666"
     borderopacity="1.0"
     inkscape:pageopacity="0.0"
     inkscape:pageshadow="2"
     inkscape:zoom="11.197802"
     inkscape:cx="2.8277721"
     inkscape:cy="16"
     inkscape:current-layer="layer1"
     showgrid="true"
     inkscape:grid-bbox="true"
     inkscape:document-units="px"
     inkscape:window-width="1280"
     inkscape:window-height="657"
     inkscape:window-x="-8"
     inkscape:window-y="-8"
     inkscape:window-maximized="1" />
  <metadata
     id="metadata4752">
    <rdf:RDF>
      <cc:Work
         rdf:about="">
        <dc:format>image/svg+xml</dc:format>
        <dc:type
           rdf:resource="http://purl.org/dc/dcmitype/StillImage" />
        <dc:title></dc:title>
      </cc:Work>
    </rdf:RDF>
  </metadata>
  <g
     id="layer1"
     inkscape:label="Layer 1"
     inkscape:groupmode="layer">
    <g
       id="g4685"
       transform="matrix(0.05525847,0,0,0.05525847,0.39597586,0.51471883)"
       style="fill:#f9d780;fill-opacity:1">
      <g
         id="cake"
         style="fill:#f9d780;fill-opacity:1">
        <path
           d="m 280.5,114.75 c 20.4,0 38.25,-17.85 38.25,-38.25 0,-7.65 -2.55,-12.75 -5.1,-20.4 L 280.5,0 247.35,56.1 c -2.55,5.1 -5.1,12.75 -5.1,20.4 0,20.4 17.85,38.25 38.25,38.25 z m 165.75,63.75 -140.25,0 0,-38.25 -51,0 0,38.25 -140.25,0 C 51,178.5 0,229.5 0,293.25 c 0,40.8 20.4,73.95 51,94.35 l 0,173.4 459,0 0,-173.4 c 30.6,-20.399 51,-56.1 51,-94.35 C 561,229.5 510,178.5 446.25,178.5 Z m 0,178.5 c -17.85,0 -33.15,-7.65 -45.9,-17.85 L 362.1,300.9 323.85,339.15 c -10.2,10.2 -25.5,17.85 -43.35,17.85 -17.85,0 -33.15,-7.65 -45.9,-17.85 L 196.35,300.9 158.1,339.15 C 147.9,349.35 132.6,357 114.75,357 79.05,357 51,328.95 51,293.25 51,257.55 79.05,229.5 114.75,229.5 l 331.5,0 c 35.7,0 63.75,28.05 63.75,63.75 0,35.7 -28.05,63.75 -63.75,63.75 z"
           id="path4688"
           inkscape:connector-curvature="0"
           style="fill:#f9d780;fill-opacity:1" />
      </g>
    </g>
  </g>
</svg>
