<?xml version="1.0" encoding="UTF-8" standalone="no"?>
<!-- Created with Inkscape (http://www.inkscape.org/) -->

<svg
   xmlns:dc="http://purl.org/dc/elements/1.1/"
   xmlns:cc="http://creativecommons.org/ns#"
   xmlns:rdf="http://www.w3.org/1999/02/22-rdf-syntax-ns#"
   xmlns:svg="http://www.w3.org/2000/svg"
   xmlns="http://www.w3.org/2000/svg"
   xmlns:sodipodi="http://sodipodi.sourceforge.net/DTD/sodipodi-0.dtd"
   xmlns:inkscape="http://www.inkscape.org/namespaces/inkscape"
   width="32"
   height="32"
   id="svg4725"
   version="1.1"
   inkscape:version="0.91 r13725"
   viewBox="0 0 32 32"
   sodipodi:docname="calendar.svg">
  <defs
     id="defs4727" />
  <sodipodi:namedview
     id="base"
     pagecolor="#ffffff"
     bordercolor="#666666"
     borderopacity="1.0"
     inkscape:pageopacity="0.0"
     inkscape:pageshadow="2"
     inkscape:zoom="11.197802"
     inkscape:cx="2.8277721"
     inkscape:cy="16"
     inkscape:current-layer="layer1"
     showgrid="true"
     inkscape:grid-bbox="true"
     inkscape:document-units="px"
     inkscape:window-width="1280"
     inkscape:window-height="657"
     inkscape:window-x="-8"
     inkscape:window-y="-8"
     inkscape:window-maximized="1" />
  <metadata
     id="metadata4730">
    <rdf:RDF>
      <cc:Work
         rdf:about="">
        <dc:format>image/svg+xml</dc:format>
        <dc:type
           rdf:resource="http://purl.org/dc/dcmitype/StillImage" />
        <dc:title></dc:title>
      </cc:Work>
    </rdf:RDF>
  </metadata>
  <g
     id="layer1"
     inkscape:label="Layer 1"
     inkscape:groupmode="layer">
    <g
       id="g4685"
       transform="matrix(0.06059007,0,0,0.06059007,0.55685086,0.6575079)"
       style="fill:#f9d780;fill-opacity:1">
      <path
         d="m 482.513,83.942 c -7.225,-7.233 -15.797,-10.85 -25.694,-10.85 l -36.541,0 0,-27.41 c 0,-12.56 -4.477,-23.315 -13.422,-32.261 C 397.906,4.475 387.157,0 374.591,0 l -18.268,0 c -12.565,0 -23.318,4.475 -32.264,13.422 -8.949,8.945 -13.422,19.701 -13.422,32.261 l 0,27.41 -109.63,0 0,-27.41 c 0,-12.56 -4.475,-23.315 -13.422,-32.261 C 178.64,4.475 167.886,0 155.321,0 L 137.05,0 C 124.488,0 113.733,4.475 104.786,13.422 95.841,22.367 91.365,33.123 91.365,45.683 l 0,27.41 -36.542,0 c -9.9,0 -18.464,3.617 -25.697,10.85 -7.233,7.232 -10.85,15.8 -10.85,25.697 l 0,365.453 c 0,9.89 3.617,18.456 10.85,25.693 7.232,7.231 15.796,10.849 25.697,10.849 l 401.989,0 c 9.897,0 18.47,-3.617 25.694,-10.849 7.234,-7.234 10.852,-15.804 10.852,-25.693 l 0,-365.454 c -10e-4,-9.9 -3.615,-18.464 -10.845,-25.697 z m -345.466,391.146 -82.224,0 0,-82.23 82.224,0 0,82.23 z m 0,-100.498 -82.224,0 0,-91.358 82.224,0 0,91.358 z m 0,-109.639 -82.224,0 0,-82.223 82.224,0 0,82.223 z m -6.42,-130.618 c -1.809,-1.809 -2.712,-3.946 -2.712,-6.423 l 0,-82.224 c 0,-2.474 0.903,-4.617 2.712,-6.423 1.809,-1.809 3.946,-2.712 6.423,-2.712 l 18.271,0 c 2.474,0 4.617,0.903 6.423,2.712 1.809,1.807 2.714,3.949 2.714,6.423 l 0,82.224 c 0,2.478 -0.909,4.615 -2.714,6.423 -1.807,1.809 -3.946,2.712 -6.423,2.712 l -18.271,0 c -2.474,0.001 -4.614,-0.903 -6.423,-2.712 z m 116.056,340.755 -91.365,0 0,-82.23 91.365,0 0,82.23 z m 0,-100.498 -91.365,0 0,-91.358 91.365,0 0,91.358 z m 0,-109.639 -91.365,0 0,-82.223 91.365,0 0,82.223 z m 109.64,210.137 -91.364,0 0,-82.23 91.364,0 0,82.23 z m 0,-100.498 -91.364,0 0,-91.358 91.364,0 0,91.358 z m 0,-109.639 -91.364,0 0,-82.223 91.364,0 0,82.223 z m -6.427,-130.618 c -1.807,-1.809 -2.707,-3.946 -2.707,-6.423 l 0,-82.224 c 0,-2.474 0.9,-4.617 2.707,-6.423 1.808,-1.809 3.949,-2.712 6.427,-2.712 l 18.268,0 c 2.478,0 4.617,0.903 6.427,2.712 1.808,1.807 2.707,3.949 2.707,6.423 l 0,82.224 c 0,2.478 -0.903,4.615 -2.707,6.423 -1.807,1.809 -3.949,2.712 -6.427,2.712 l -18.268,0 c -2.477,0.001 -4.626,-0.903 -6.427,-2.712 z m 106.916,340.755 -82.228,0 0,-82.23 82.228,0 0,82.23 z m 0,-100.498 -82.228,0 0,-91.358 82.228,0 0,91.358 z m 0,-109.639 -82.228,0 0,-82.223 82.228,0 0,82.223 z"
         id="path4687"
         inkscape:connector-curvature="0"
         style="fill:#f9d780;fill-opacity:1" />
    </g>
  </g>
</svg>
