<?xml version="1.0" encoding="UTF-8" standalone="no"?>
<!-- Created with Inkscape (http://www.inkscape.org/) -->

<svg
   xmlns:dc="http://purl.org/dc/elements/1.1/"
   xmlns:cc="http://creativecommons.org/ns#"
   xmlns:rdf="http://www.w3.org/1999/02/22-rdf-syntax-ns#"
   xmlns:svg="http://www.w3.org/2000/svg"
   xmlns="http://www.w3.org/2000/svg"
   xmlns:sodipodi="http://sodipodi.sourceforge.net/DTD/sodipodi-0.dtd"
   xmlns:inkscape="http://www.inkscape.org/namespaces/inkscape"
   width="32"
   height="32"
   id="svg4747"
   version="1.1"
   inkscape:version="0.91 r13725"
   viewBox="0 0 32 32"
   sodipodi:docname="face.svg">
  <defs
     id="defs4749" />
  <sodipodi:namedview
     id="base"
     pagecolor="#ffffff"
     bordercolor="#666666"
     borderopacity="1.0"
     inkscape:pageopacity="0.0"
     inkscape:pageshadow="2"
     inkscape:zoom="11.197802"
     inkscape:cx="11.42953"
     inkscape:cy="16"
     inkscape:current-layer="layer1"
     showgrid="true"
     inkscape:grid-bbox="true"
     inkscape:document-units="px"
     inkscape:window-width="1280"
     inkscape:window-height="657"
     inkscape:window-x="-8"
     inkscape:window-y="-8"
     inkscape:window-maximized="1" />
  <metadata
     id="metadata4752">
    <rdf:RDF>
      <cc:Work
         rdf:about="">
        <dc:format>image/svg+xml</dc:format>
        <dc:type
           rdf:resource="http://purl.org/dc/dcmitype/StillImage" />
        <dc:title></dc:title>
      </cc:Work>
    </rdf:RDF>
  </metadata>
  <g
     id="layer1"
     inkscape:label="Layer 1"
     inkscape:groupmode="layer">
    <g
       id="g4137"
       transform="matrix(0.05065359,0,0,0.05065359,0.30667465,0.69332794)"
       style="fill:#f9d780;fill-opacity:1">
      <g
         id="tag-faces"
         style="fill:#f9d780;fill-opacity:1">
        <path
           d="m 433.5,280.5 c 15.3,0 25.5,-10.2 25.5,-25.5 0,-15.3 -10.2,-25.5 -25.5,-25.5 -15.3,0 -25.5,10.2 -25.5,25.5 0,15.3 10.2,25.5 25.5,25.5 z m -51,127.5 c 48.45,0 86.7,-33.15 96.9,-76.5 l -193.8,0 c 10.2,43.35 48.45,76.5 96.9,76.5 z m -51,-127.5 c 15.3,0 25.5,-10.2 25.5,-25.5 0,-15.3 -10.2,-25.5 -25.5,-25.5 -15.3,0 -25.5,10.2 -25.5,25.5 0,15.3 10.2,25.5 25.5,25.5 z m 229.5,-204 -367.2,0 c -15.3,0 -30.6,7.65 -40.8,20.4 L 0,306 153,515.1 c 10.2,12.75 25.5,20.4 40.8,20.4 l 367.2,0 c 28.05,0 51,-22.95 51,-51 l 0,-357 c 0,-28.05 -22.95,-51 -51,-51 z m -459,255 c -15.3,0 -25.5,-10.2 -25.5,-25.5 0,-15.3 10.2,-25.5 25.5,-25.5 15.3,0 25.5,10.2 25.5,25.5 0,15.3 -10.2,25.5 -25.5,25.5 z M 382.5,459 c -84.15,0 -153,-68.85 -153,-153 0,-84.15 68.85,-153 153,-153 84.15,0 153,68.85 153,153 0,84.15 -68.85,153 -153,153 z"
           id="path4140"
           inkscape:connector-curvature="0"
           style="fill:#f9d780;fill-opacity:1" />
      </g>
    </g>
  </g>
</svg>
