<?xml version="1.0" encoding="UTF-8" standalone="no"?>
<!-- Created with Inkscape (http://www.inkscape.org/) -->

<svg
   xmlns:dc="http://purl.org/dc/elements/1.1/"
   xmlns:cc="http://creativecommons.org/ns#"
   xmlns:rdf="http://www.w3.org/1999/02/22-rdf-syntax-ns#"
   xmlns:svg="http://www.w3.org/2000/svg"
   xmlns="http://www.w3.org/2000/svg"
   xmlns:sodipodi="http://sodipodi.sourceforge.net/DTD/sodipodi-0.dtd"
   xmlns:inkscape="http://www.inkscape.org/namespaces/inkscape"
   width="32"
   height="32"
   id="svg4136"
   version="1.1"
   inkscape:version="0.91 r13725"
   viewBox="0 0 32 32"
   sodipodi:docname="footprint.svg">
  <defs
     id="defs4138" />
  <sodipodi:namedview
     id="base"
     pagecolor="#ffffff"
     bordercolor="#666666"
     borderopacity="1.0"
     inkscape:pageopacity="0.0"
     inkscape:pageshadow="2"
     inkscape:zoom="11.197802"
     inkscape:cx="2.8277721"
     inkscape:cy="16"
     inkscape:current-layer="layer1"
     showgrid="true"
     inkscape:grid-bbox="true"
     inkscape:document-units="px"
     inkscape:window-width="1280"
     inkscape:window-height="657"
     inkscape:window-x="-8"
     inkscape:window-y="-8"
     inkscape:window-maximized="1" />
  <metadata
     id="metadata4141">
    <rdf:RDF>
      <cc:Work
         rdf:about="">
        <dc:format>image/svg+xml</dc:format>
        <dc:type
           rdf:resource="http://purl.org/dc/dcmitype/StillImage" />
        <dc:title></dc:title>
      </cc:Work>
    </rdf:RDF>
  </metadata>
  <g
     id="layer1"
     inkscape:label="Layer 1"
     inkscape:groupmode="layer">
    <g
       id="g4712"
       transform="matrix(0.14812077,0,0,0.14812077,1.199713,0.60398209)"
       style="fill:#f9d780;fill-opacity:1">
      <g
         id="g4714"
         style="fill:#f9d780;fill-opacity:1">
        <path
           d="m 88.428,127.885 c -2.506,-3.788 -5.712,-7.119 -8.413,-10.791 -1.887,-2.588 -3.939,-5.242 -5.036,-8.201 C 71.475,99.403 73.152,90.574 79.774,83.047 82.989,79.4 86.767,76.27 90.317,72.939 95.31,68.269 98.571,62.807 98.845,55.613 99.128,47.956 95.368,41.702 88.509,39.824 85.017,38.871 77.722,38.347 77.704,38.503 c -10.489,0.518 -20.572,2.706 -29.8,8.013 -8.418,4.838 -14.453,11.71 -16.13,21.748 -1.416,8.442 -0.63,16.86 2.344,24.816 2.658,7.122 6.016,13.957 9.161,20.892 3.696,8.141 6.135,16.593 6.333,25.629 0.052,2.332 0.137,4.689 0.582,6.96 1.458,7.636 5.017,13.786 12.208,17.135 4.333,2.016 8.902,1.608 13.43,0.956 8.5,-1.224 14.075,-6.266 15.777,-14.248 1.703,-7.9 1.37,-15.614 -3.181,-22.519 z"
           id="path4716"
           inkscape:connector-curvature="0"
           style="fill:#f9d780;fill-opacity:1" />
        <path
           d="m 100.588,26.887 c 3.154,-3.879 4.39,-8.446 4.545,-13.944 -0.101,-0.804 -0.176,-2.155 -0.432,-3.486 -0.204,-1.108 -0.536,-2.207 -0.936,-3.261 -2.548,-6.789 -8.896,-8.223 -13.999,-3.185 -5.087,5.03 -6.744,16.018 -3.371,22.438 3.312,6.306 9.684,6.967 14.193,1.438 z"
           id="path4718"
           inkscape:connector-curvature="0"
           style="fill:#f9d780;fill-opacity:1" />
        <path
           d="M 76.332,26.394 C 80.217,22.527 81.115,14.8 78.216,10.105 75.64,5.928 71.137,5.691 68.096,9.627 c -1.979,2.554 -2.789,5.547 -2.765,8.783 -0.03,2.789 0.625,5.17 1.921,7.085 2.364,3.487 6.118,3.852 9.08,0.899 z"
           id="path4720"
           inkscape:connector-curvature="0"
           style="fill:#f9d780;fill-opacity:1" />
        <path
           d="m 59.297,28.948 c 1.632,-2.019 2.125,-4.427 2.232,-6.951 -0.119,-2.6 -0.63,-5.063 -2.338,-7.091 -2.089,-2.469 -5.039,-2.451 -7.127,0 -3.005,3.535 -3.054,10.458 -0.094,14.057 2.146,2.625 5.208,2.625 7.327,-0.015 z"
           id="path4722"
           inkscape:connector-curvature="0"
           style="fill:#f9d780;fill-opacity:1" />
        <path
           d="m 48.066,33.6 c 1.772,-3.178 0.725,-8.567 -2.113,-10.823 -2.137,-1.702 -4.658,-1.236 -5.849,1.239 -0.536,1.142 -0.709,2.451 -1.053,3.687 0.28,2.838 1.071,5.313 3.248,7.094 2.071,1.699 4.458,1.154 5.767,-1.197 z"
           id="path4724"
           inkscape:connector-curvature="0"
           style="fill:#f9d780;fill-opacity:1" />
        <path
           d="m 38.695,42.019 c 0.804,-1.254 1.129,-2.832 1.696,-4.372 -0.56,-1.47 -0.877,-2.929 -1.62,-4.107 -1.23,-1.952 -3.468,-1.939 -4.957,-0.155 -1.833,2.18 -1.964,6.333 -0.262,8.646 1.49,2.015 3.797,2.107 5.143,-0.012 z"
           id="path4726"
           inkscape:connector-curvature="0"
           style="fill:#f9d780;fill-opacity:1" />
        <path
           d="m 134.024,84.308 c 0.018,-0.159 -7.149,-1.604 -10.778,-1.604 -7.118,-0.019 -12.392,5.014 -14.157,12.464 -1.675,7.009 0.043,13.141 3.604,18.974 2.527,4.159 5.341,8.185 7.466,12.568 4.378,9 3.666,17.957 -2.247,26.172 -1.845,2.562 -4.542,4.572 -7.039,6.576 -3.574,2.837 -7.541,5.176 -10.979,8.171 -6.229,5.438 -8.592,12.788 -9.058,20.868 -0.481,8.153 3.541,14.479 11.411,17.932 4.198,1.84 8.485,3.441 13.198,2.655 7.824,-1.315 12.902,-6.32 16.331,-13.262 1.022,-2.077 1.747,-4.329 2.411,-6.57 2.594,-8.671 7.191,-16.167 12.928,-23.023 4.865,-5.846 9.931,-11.545 14.4,-17.688 4.98,-6.887 7.965,-14.785 8.859,-23.297 1.06,-10.127 -2.947,-18.354 -9.748,-25.262 -7.513,-7.6 -16.634,-12.383 -26.602,-15.674 z"
           id="path4728"
           inkscape:connector-curvature="0"
           style="fill:#f9d780;fill-opacity:1" />
        <path
           d="m 129.14,69.423 c 4.95,-5.289 6.278,-16.325 2.71,-22.533 -3.562,-6.211 -10.054,-6.519 -14.334,-0.652 -0.658,0.914 -1.279,1.885 -1.778,2.902 -0.591,1.202 -1.029,2.481 -1.34,3.242 -1.309,5.337 -1.333,10.074 0.676,14.65 2.862,6.531 9.176,7.591 14.066,2.391 z"
           id="path4730"
           inkscape:connector-curvature="0"
           style="fill:#f9d780;fill-opacity:1" />
        <path
           d="m 147.572,74.553 c 1.766,-1.501 3.021,-3.623 3.732,-6.321 0.896,-3.118 0.914,-6.217 -0.328,-9.216 -1.882,-4.594 -6.284,-5.562 -9.883,-2.219 -4.031,3.76 -5.237,11.442 -2.521,16.197 2.058,3.641 5.785,4.278 9,1.559 z"
           id="path4732"
           inkscape:connector-curvature="0"
           style="fill:#f9d780;fill-opacity:1" />
        <path
           d="m 161.376,81.969 c 3.812,-2.682 5.607,-9.358 3.647,-13.569 -1.364,-2.926 -4.196,-3.724 -6.863,-1.903 -2.204,1.498 -3.337,3.736 -4.146,6.211 -0.561,2.469 -0.725,4.914 0.305,7.294 1.346,3.106 4.274,3.925 7.057,1.967 z"
           id="path4734"
           inkscape:connector-curvature="0"
           style="fill:#f9d780;fill-opacity:1" />
        <path
           d="m 163.897,87.486 c 0.64,2.606 2.801,3.766 5.249,2.688 2.569,-1.142 3.994,-3.312 5.011,-5.973 0,-1.285 0.189,-2.594 -0.036,-3.836 -0.481,-2.712 -2.782,-3.82 -5.304,-2.749 -3.337,1.416 -5.791,6.33 -4.92,9.87 z"
           id="path4736"
           inkscape:connector-curvature="0"
           style="fill:#f9d780;fill-opacity:1" />
        <path
           d="m 177.695,91.054 c -0.962,-2.109 -3.117,-2.733 -4.816,-1.175 -1.029,0.944 -1.717,2.259 -2.655,3.532 0.135,1.638 0.037,3.239 0.47,4.665 0.736,2.398 2.983,2.922 4.956,1.376 2.252,-1.779 3.221,-5.813 2.045,-8.398 z"
           id="path4738"
           inkscape:connector-curvature="0"
           style="fill:#f9d780;fill-opacity:1" />
      </g>
    </g>
  </g>
</svg>
