<?xml version="1.0" encoding="UTF-8" standalone="no"?>
<!-- Created with Inkscape (http://www.inkscape.org/) -->

<svg
   xmlns:dc="http://purl.org/dc/elements/1.1/"
   xmlns:cc="http://creativecommons.org/ns#"
   xmlns:rdf="http://www.w3.org/1999/02/22-rdf-syntax-ns#"
   xmlns:svg="http://www.w3.org/2000/svg"
   xmlns="http://www.w3.org/2000/svg"
   xmlns:sodipodi="http://sodipodi.sourceforge.net/DTD/sodipodi-0.dtd"
   xmlns:inkscape="http://www.inkscape.org/namespaces/inkscape"
   width="32"
   height="32"
   id="svg5871"
   version="1.1"
   inkscape:version="0.91 r13725"
   viewBox="0 0 32 32"
   sodipodi:docname="location.svg">
  <defs
     id="defs5873" />
  <sodipodi:namedview
     id="base"
     pagecolor="#ffffff"
     bordercolor="#666666"
     borderopacity="1.0"
     inkscape:pageopacity="0.0"
     inkscape:pageshadow="2"
     inkscape:zoom="11.197802"
     inkscape:cx="2.8277721"
     inkscape:cy="16"
     inkscape:current-layer="layer1"
     showgrid="true"
     inkscape:grid-bbox="true"
     inkscape:document-units="px"
     inkscape:window-width="1280"
     inkscape:window-height="657"
     inkscape:window-x="-8"
     inkscape:window-y="-8"
     inkscape:window-maximized="1" />
  <metadata
     id="metadata5876">
    <rdf:RDF>
      <cc:Work
         rdf:about="">
        <dc:format>image/svg+xml</dc:format>
        <dc:type
           rdf:resource="http://purl.org/dc/dcmitype/StillImage" />
        <dc:title></dc:title>
      </cc:Work>
    </rdf:RDF>
  </metadata>
  <g
     id="layer1"
     inkscape:label="Layer 1"
     inkscape:groupmode="layer">
    <g
       id="g5292"
       transform="matrix(0.07207408,0,0,0.07207408,0.90186549,0.50000061)"
       style="fill:#f9d780;fill-opacity:1">
      <path
         id="Facebook_Places"
         d="m 356.208,107.051 c -1.531,-5.738 -4.64,-11.852 -6.94,-17.205 C 321.746,23.704 261.611,0 213.055,0 148.054,0 76.463,43.586 66.905,133.427 l 0,18.355 c 0,0.766 0.264,7.647 0.639,11.089 5.358,42.816 39.143,88.32 64.375,131.136 27.146,45.873 55.314,90.999 83.221,136.106 17.208,-29.436 34.354,-59.259 51.17,-87.933 4.583,-8.415 9.903,-16.825 14.491,-24.857 3.058,-5.348 8.9,-10.696 11.569,-15.672 27.145,-49.699 70.838,-99.782 70.838,-149.104 l 0,-20.262 c 10e-4,-5.347 -6.627,-24.081 -7,-25.234 z m -141.963,92.142 c -19.107,0 -40.021,-9.554 -50.344,-35.939 -1.538,-4.2 -1.414,-12.617 -1.414,-13.388 l 0,-11.852 c 0,-33.636 28.56,-48.932 53.406,-48.932 30.588,0 54.245,24.472 54.245,55.06 0,30.587 -25.305,55.051 -55.893,55.051 z"
         inkscape:connector-curvature="0"
         style="fill:#f9d780;fill-opacity:1" />
    </g>
  </g>
</svg>
