<?xml version="1.0" encoding="UTF-8" standalone="no"?>
<!-- Created with Inkscape (http://www.inkscape.org/) -->

<svg
   xmlns:dc="http://purl.org/dc/elements/1.1/"
   xmlns:cc="http://creativecommons.org/ns#"
   xmlns:rdf="http://www.w3.org/1999/02/22-rdf-syntax-ns#"
   xmlns:svg="http://www.w3.org/2000/svg"
   xmlns="http://www.w3.org/2000/svg"
   xmlns:sodipodi="http://sodipodi.sourceforge.net/DTD/sodipodi-0.dtd"
   xmlns:inkscape="http://www.inkscape.org/namespaces/inkscape"
   width="32"
   height="32"
   id="svg4747"
   version="1.1"
   inkscape:version="0.91 r13725"
   viewBox="0 0 32 32"
   sodipodi:docname="lock.svg">
  <defs
     id="defs4749" />
  <sodipodi:namedview
     id="base"
     pagecolor="#ffffff"
     bordercolor="#666666"
     borderopacity="1.0"
     inkscape:pageopacity="0.0"
     inkscape:pageshadow="2"
     inkscape:zoom="11.197802"
     inkscape:cx="2.8277721"
     inkscape:cy="16"
     inkscape:current-layer="layer1"
     showgrid="true"
     inkscape:grid-bbox="true"
     inkscape:document-units="px"
     inkscape:window-width="1280"
     inkscape:window-height="657"
     inkscape:window-x="-8"
     inkscape:window-y="-8"
     inkscape:window-maximized="1" />
  <metadata
     id="metadata4752">
    <rdf:RDF>
      <cc:Work
         rdf:about="">
        <dc:format>image/svg+xml</dc:format>
        <dc:type
           rdf:resource="http://purl.org/dc/dcmitype/StillImage" />
        <dc:title></dc:title>
      </cc:Work>
    </rdf:RDF>
  </metadata>
  <g
     id="layer1"
     inkscape:label="Layer 1"
     inkscape:groupmode="layer">
    <g
       id="g4685"
       transform="matrix(0.06368995,0,0,0.06368995,0.75322128,0.5147198)"
       style="fill:#f9d780;fill-opacity:1">
      <path
         d="m 403.88,196.563 -9.484,0 0,-44.388 C 394.396,70.076 329.245,1.494 247.814,0.03 c -2.225,-0.04 -6.671,-0.04 -8.895,0 C 157.486,1.494 92.336,70.076 92.336,152.175 l 0,44.388 -9.485,0 c -14.616,0 -26.538,15.082 -26.538,33.709 l 0,222.632 c 0,18.606 11.922,33.829 26.539,33.829 l 321.028,0 c 14.616,0 26.539,-15.223 26.539,-33.829 l 0,-222.632 c 0,-18.626 -11.922,-33.709 -26.539,-33.709 z m -130.438,144.799 0,67.271 c 0,7.703 -6.449,14.222 -14.158,14.222 l -31.834,0 c -7.71,0 -14.159,-6.519 -14.159,-14.222 l 0,-67.271 c -7.477,-7.36 -11.83,-17.537 -11.83,-28.795 0,-21.334 16.491,-39.666 37.459,-40.513 2.222,-0.09 6.673,-0.09 8.895,0 20.968,0.847 37.459,19.179 37.459,40.513 -0.002,11.258 -4.355,21.435 -11.832,28.795 z m 58.444,-144.799 -84.072,0 -8.895,0 -84.072,0 0,-44.388 c 0,-48.905 39.744,-89.342 88.519,-89.342 48.775,0 88.521,40.437 88.521,89.342 l 0,44.388 z"
         id="path4687"
         inkscape:connector-curvature="0"
         style="fill:#f9d780;fill-opacity:1" />
    </g>
  </g>
</svg>
