<?xml version="1.0" encoding="UTF-8" standalone="no"?>
<!-- Created with Inkscape (http://www.inkscape.org/) -->

<svg
   xmlns:dc="http://purl.org/dc/elements/1.1/"
   xmlns:cc="http://creativecommons.org/ns#"
   xmlns:rdf="http://www.w3.org/1999/02/22-rdf-syntax-ns#"
   xmlns:svg="http://www.w3.org/2000/svg"
   xmlns="http://www.w3.org/2000/svg"
   xmlns:sodipodi="http://sodipodi.sourceforge.net/DTD/sodipodi-0.dtd"
   xmlns:inkscape="http://www.inkscape.org/namespaces/inkscape"
   width="32"
   height="32"
   id="svg4136"
   version="1.1"
   inkscape:version="0.91 r13725"
   viewBox="0 0 32 32"
   sodipodi:docname="search.svg">
  <defs
     id="defs4138" />
  <sodipodi:namedview
     id="base"
     pagecolor="#ffffff"
     bordercolor="#666666"
     borderopacity="1.0"
     inkscape:pageopacity="0.0"
     inkscape:pageshadow="2"
     inkscape:zoom="11.197802"
     inkscape:cx="2.8277721"
     inkscape:cy="16"
     inkscape:current-layer="layer1"
     showgrid="true"
     inkscape:grid-bbox="true"
     inkscape:document-units="px"
     inkscape:window-width="1280"
     inkscape:window-height="657"
     inkscape:window-x="-8"
     inkscape:window-y="-8"
     inkscape:window-maximized="1" />
  <metadata
     id="metadata4141">
    <rdf:RDF>
      <cc:Work
         rdf:about="">
        <dc:format>image/svg+xml</dc:format>
        <dc:type
           rdf:resource="http://purl.org/dc/dcmitype/StillImage" />
        <dc:title></dc:title>
      </cc:Work>
    </rdf:RDF>
  </metadata>
  <g
     id="layer1"
     inkscape:label="Layer 1"
     inkscape:groupmode="layer">
    <path
       d="m 30.58411,28.840111 -7.37805,-7.673542 c 1.897027,-2.255099 2.936419,-5.092476 2.936419,-8.046308 0,-6.9013447 -5.614894,-12.51623774 -12.516238,-12.51623774 -6.9013453,0 -12.5162384,5.61489304 -12.5162384,12.51623774 0,6.901344 5.6148931,12.516238 12.5162384,12.516238 2.590861,0 5.059825,-0.781449 7.170716,-2.264895 l 7.434101,7.731769 c 0.310729,0.322702 0.728662,0.50065 1.176526,0.50065 0.42392,0 0.826072,-0.161623 1.131359,-0.455482 0.648668,-0.62418 0.669347,-1.659218 0.04517,-2.30843 z M 13.626241,3.8691293 c 5.101183,0 9.251132,4.1499489 9.251132,9.2511317 0,5.101183 -4.149949,9.251132 -9.251132,9.251132 -5.1011838,0 -9.2511329,-4.149949 -9.2511329,-9.251132 0,-5.1011828 4.1499491,-9.2511317 9.2511329,-9.2511317 z"
       id="path4759"
       inkscape:connector-curvature="0"
       style="fill:#f9d780;fill-opacity:1" />
  </g>
</svg>
