<?xml version="1.0" encoding="UTF-8" standalone="no"?>
<!-- Created with Inkscape (http://www.inkscape.org/) -->

<svg
   xmlns:dc="http://purl.org/dc/elements/1.1/"
   xmlns:cc="http://creativecommons.org/ns#"
   xmlns:rdf="http://www.w3.org/1999/02/22-rdf-syntax-ns#"
   xmlns:svg="http://www.w3.org/2000/svg"
   xmlns="http://www.w3.org/2000/svg"
   xmlns:sodipodi="http://sodipodi.sourceforge.net/DTD/sodipodi-0.dtd"
   xmlns:inkscape="http://www.inkscape.org/namespaces/inkscape"
   width="32"
   height="32"
   id="svg8165"
   version="1.1"
   inkscape:version="0.91 r13725"
   viewBox="0 0 32 32"
   sodipodi:docname="tah.svg">
  <defs
     id="defs8167" />
  <sodipodi:namedview
     id="base"
     pagecolor="#ffffff"
     bordercolor="#666666"
     borderopacity="1.0"
     inkscape:pageopacity="0.0"
     inkscape:pageshadow="2"
     inkscape:zoom="11.197802"
     inkscape:cx="2.8277721"
     inkscape:cy="16"
     inkscape:current-layer="layer1"
     showgrid="true"
     inkscape:grid-bbox="true"
     inkscape:document-units="px"
     inkscape:window-width="1280"
     inkscape:window-height="657"
     inkscape:window-x="-8"
     inkscape:window-y="-8"
     inkscape:window-maximized="1" />
  <metadata
     id="metadata8170">
    <rdf:RDF>
      <cc:Work
         rdf:about="">
        <dc:format>image/svg+xml</dc:format>
        <dc:type
           rdf:resource="http://purl.org/dc/dcmitype/StillImage" />
        <dc:title></dc:title>
      </cc:Work>
    </rdf:RDF>
  </metadata>
  <g
     id="layer1"
     inkscape:label="Layer 1"
     inkscape:groupmode="layer">
    <g
       id="g7585"
       transform="matrix(0.06365737,0,0,0.06365737,0.574584,0.78260649)"
       style="fill:#f9d780;fill-opacity:1">
      <path
         d="m 131.35,422.969 c 14.6,14.6 38.3,14.6 52.9,0 l 181.1,-181.1 c 5.2,-5.2 9.2,-11.4 11.8,-18 18.2,5.1 35.9,7.8 51.5,7.7 38.6,-0.2 51.4,-17.1 55.6,-27.2 4.2,-10 7.2,-31 -19.9,-58.6 -0.3,-0.3 -0.6,-0.6 -0.9,-0.9 -16.8,-16.8 -41.2,-32.3 -68.9,-43.8 -5.1,-2.1 -10.2,-4 -15.2,-5.8 l 0,-0.3 c -0.3,-22.2 -18.2,-40.1 -40.4,-40.4 l -108.5,-1.5 c -14.4,-0.2 -28.2,5.4 -38.3,15.6 l -181.2,181.1 c -14.6,14.6 -14.6,38.3 0,52.9 l 120.4,120.3 z m 139.6,-305.1 c 12.1,-12.1 31.7,-12.1 43.8,0 7.2,7.2 10.1,17.1 8.7,26.4 11.9,8.4 26.1,16.2 41.3,22.5 5.4,2.2 10.6,4.2 15.6,5.9 l -0.6,-43.6 c 0.9,0.4 1.7,0.7 2.6,1.1 23.7,9.9 45,23.3 58.7,37 0.2,0.2 0.4,0.4 0.6,0.6 13,13.3 14.4,21.8 13.3,24.4 -3.4,8.1 -39.9,15.3 -95.3,-7.8 -16.2,-6.8 -31.4,-15.2 -43.7,-24.3 -0.4,0.5 -0.9,1 -1.3,1.5 -12.1,12.1 -31.7,12.1 -43.8,0 -12,-12 -12,-31.6 0.1,-43.7 z"
         id="path7587"
         inkscape:connector-curvature="0"
         style="fill:#f9d780;fill-opacity:1" />
    </g>
  </g>
</svg>
