<?xml version="1.0" encoding="UTF-8" standalone="no"?>
<!-- Created with Inkscape (http://www.inkscape.org/) -->

<svg
   xmlns:dc="http://purl.org/dc/elements/1.1/"
   xmlns:cc="http://creativecommons.org/ns#"
   xmlns:rdf="http://www.w3.org/1999/02/22-rdf-syntax-ns#"
   xmlns:svg="http://www.w3.org/2000/svg"
   xmlns="http://www.w3.org/2000/svg"
   xmlns:sodipodi="http://sodipodi.sourceforge.net/DTD/sodipodi-0.dtd"
   xmlns:inkscape="http://www.inkscape.org/namespaces/inkscape"
   width="32"
   height="32"
   id="svg4747"
   version="1.1"
   inkscape:version="0.91 r13725"
   viewBox="0 0 32 32"
   sodipodi:docname="weight.svg">
  <defs
     id="defs4749" />
  <sodipodi:namedview
     id="base"
     pagecolor="#ffffff"
     bordercolor="#666666"
     borderopacity="1.0"
     inkscape:pageopacity="0.0"
     inkscape:pageshadow="2"
     inkscape:zoom="11.197802"
     inkscape:cx="-10.344456"
     inkscape:cy="16"
     inkscape:current-layer="layer1"
     showgrid="true"
     inkscape:grid-bbox="true"
     inkscape:document-units="px"
     inkscape:window-width="1280"
     inkscape:window-height="657"
     inkscape:window-x="-8"
     inkscape:window-y="-8"
     inkscape:window-maximized="1" />
  <metadata
     id="metadata4752">
    <rdf:RDF>
      <cc:Work
         rdf:about="">
        <dc:format>image/svg+xml</dc:format>
        <dc:type
           rdf:resource="http://purl.org/dc/dcmitype/StillImage" />
        <dc:title />
      </cc:Work>
    </rdf:RDF>
  </metadata>
  <g
     id="layer1"
     inkscape:label="Layer 1"
     inkscape:groupmode="layer">
    <path
       d="M 30.361171,29.69007 27.069958,11.32788 c -0.132459,-0.73923 -0.775626,-1.27734 -1.526745,-1.27734 l -5.473635,0 c 1.026274,-1.0108701 1.664063,-2.4151801 1.664063,-3.9661201 0,-3.07117 -2.498525,-5.56970003 -5.569697,-5.56970003 -3.071171,0 -5.5698,2.49853003 -5.5698,5.56970003 0,1.55094 0.63779,2.95525 1.664064,3.9661201 l -5.4736363,0 c -0.751119,0 -1.394182,0.53811 -1.526744,1.27734 l -3.291213,18.36219 c -0.08097,0.45208 0.04239,0.91677 0.337197,1.26896 0.294698,0.35219 0.730335,0.55569 1.189548,0.55569 l 25.3410663,0 c 0.459212,0 0.894849,-0.2035 1.189548,-0.55569 0.294698,-0.35219 0.418161,-0.81688 0.337197,-1.26896 z M 16.163944,3.6168099 c 1.36068,0 2.467609,1.10693 2.467609,2.46761 0,1.36068 -1.106929,2.46771 -2.467609,2.46771 -1.360679,0 -2.467711,-1.10703 -2.467711,-2.46771 0,-1.36068 1.107032,-2.46761 2.467711,-2.46761 z M 15.758605,24.51724 c -0.08076,0.1489 -0.23669,0.24165 -0.406064,0.24165 l -0.731679,0 c -0.163997,0 -0.315793,-0.087 -0.398722,-0.22852 l -1.810792,-3.09123 -1.15801,1.1821 0,1.42355 c 0,0.39438 -0.319722,0.7141 -0.714101,0.7141 -0.394379,0 -0.7141013,-0.31972 -0.7141013,-0.7141 l 0,-5.64549 c 0,-0.39438 0.3197223,-0.71411 0.7141013,-0.71411 0.394379,0 0.714101,0.31973 0.714101,0.71411 l 0,2.42697 2.748347,-2.99166 c 0.08748,-0.0952 0.210942,-0.14942 0.340196,-0.14942 l 0.627966,0 c 0.185505,0 0.352914,0.11085 0.4254,0.28157 0.07238,0.17072 0.03567,0.36822 -0.09317,0.50151 l -1.906337,1.97189 2.344145,3.60473 c 0.09234,0.14218 0.09958,0.32334 0.01872,0.47235 z m 7.035847,-0.94201 c 0,0.14043 -0.06411,0.27382 -0.17382,0.3614 -0.284979,0.22738 -0.660435,0.4315 -1.126368,0.61225 -0.56789,0.22035 -1.142913,0.33047 -1.725072,0.33047 -0.739952,0 -1.384669,-0.1551 -1.93498,-0.46562 -0.549897,-0.31031 -0.963405,-0.75422 -1.240008,-1.33173 -0.276706,-0.5774 -0.414956,-1.20537 -0.414956,-1.88421 0,-0.73654 0.154381,-1.39128 0.463245,-1.96372 0.308762,-0.57265 0.760736,-1.01159 1.355923,-1.31736 0.453319,-0.23472 1.018002,-0.35229 1.693534,-0.35229 0.878201,0 1.564073,0.18426 2.057926,0.55259 0.21394,0.15955 0.394792,0.34557 0.542555,0.55796 0.141248,0.20298 0.169891,0.46366 0.07621,0.69238 -0.09368,0.22883 -0.29687,0.3948 -0.53997,0.44029 l -0.0017,3.1e-4 c -0.284772,0.0533 -0.573473,-0.0729 -0.727646,-0.31817 -0.09865,-0.15696 -0.224488,-0.29128 -0.377214,-0.40306 -0.275156,-0.20102 -0.618557,-0.30152 -1.030204,-0.30152 -0.62414,0 -1.120371,0.19791 -1.488486,0.59343 -0.368321,0.39582 -0.552482,0.98284 -0.552482,1.76126 0,0.83963 0.186436,1.46925 0.559721,1.88907 0.373077,0.41971 0.861967,0.62962 1.466874,0.62962 0.299041,0 0.599013,-0.0586 0.899812,-0.1761 0.300593,-0.11746 0.55879,-0.25985 0.774385,-0.42695 l 0,-0.89764 -1.039716,0 c -0.329132,0 -0.595808,-0.26678 -0.595808,-0.59581 0,-0.32913 0.266779,-0.59581 0.595808,-0.59581 l 2.02039,0 c 0.255198,0 0.462004,0.20691 0.462004,0.46201 l 0,2.14695 z"
       id="path5860"
       inkscape:connector-curvature="0"
       style="fill:#f9d780;fill-opacity:1" />
  </g>
</svg>
